<?xml version="1.0" encoding="UTF-8"?>
<svg version="1.1" viewBox="0 0 2000 2000" width="1280" height="1280" xmlns="http://www.w3.org/2000/svg">
<path transform="translate(0)" d="m0 0h2e3v2e3h-2e3z" fill="#C1DBFD"/>
<path transform="translate(984,325)" d="m0 0h40l27 2 17 3 19 3 14 4 11 3 22 7 11 5 21 9 15 8 9 5 16 10 12 8 11 8 8 6v2l5 2v2l4 2 3 2v2l4 2 8 7 14 14 9 11 12 15 13 19 8 13 14 25 9 17v2l26 2 11-9 25-25 8-7 30-30 12-9 13-6 9-3 6-1h19l10 5 6 7 2 5v9l-2 15-4 12-6 10-1 3h-2l-2 5-13 12-8 7-5 5-7 6h-2l-2 4-7 5-5 5-6 5-5 5-5 4-5 5-9 8-1 2v85l8-3 6 1 1 4h2v7l-1 3h-2l-1 4h-2l-2 4-3 3h-2l-2 4v46l1 13 5-2h6l5 5v7l-1 3h-2l-3 6h-2l-2 4-4 3v79l-13 11-5 5h-3l-4-18-1-1-3-16-4-14-1-8-2-5-2-12-1-1-3-16-1-1-3-16-3-9-3-19-5-23-3-8-13-16-13-17-10-13h-3l-13 11-11 9-18 14-4 3-1 242-1 26-3 25-5 23-8 26-12 27-11 20-12 17-10 13-12 13-15 15-8 7-16 13-17 11-26 14-18 8-27 9-25 6-23 3-32 1-25-1-24-4-17-4-32-11-29-14-17-10-19-14-13-11-11-9-12-12-3-4v-3l-10 5-3 3-6 3-14 9-6 3-11 6h-2l1 4 12 14 11 12 13 13 11 9 11 10 17 12 21 14 16 9 19 9 27 11 18 6 25 6 27 4 13 1h39l26-3 24-4 27-7 28-10 20-9 21-11 22-14 19-14 14-12 12-11 17-17 7-8 14-18 12-17 9-15 8-16 9-20 7-20 6-21 5-26 2-19 1-25v-282l2-4 12 13 9 11 7 8 3 9v278l-3 25-1 1-4 26h-2l-1 8-5 20-4 10-7 19-3 7-5 12-13 23-10 17-11 16-1 2h-2l-2 4-5 8-5 5-10 11-7 8-2 3h-2l-2 4-9 7-4 4-11 9-16 13-4 3h-2v2l-7 4-14 9-29 15-23 11-40 13-8 3-14 3-15 1v2l-22 3-12 1h-59l-23-3-15-3v-2l-10-1-16-3v-2h-7v-2l-7-1-26-9-11-5-8-3-16-8v-2l-9-3v-2l-7-2v-2l-5-2-3-1v-2h-3v-2l-4-1-11-8-5-3-8-6-8-7-17-14-5-5v-2l-4-2-11-12-5-4-7-9-5-6-4-4-6-8v-2h-2l-3-6-9 3-22 9-17 6-16 5-32 8-21 4-23 3h-23l-31-5-15-4-16-7-12-7-11-10-10-13-7-14-4-14-3-21v-19l3-24 7-26 9-25 9-20 9-19 13-23 13-22 16-24 13-18 10-14 14-19 18-22 12-14 9-10 9-11 11-12 12-13 6-5h2l-1 49v66l-14 15-9 11-14 18-18 27-11 19-12 23-9 23-6 22-2 12v16l4 14 7 9 9 7 9 4 8 2 9 1h27l20-4 31-9 28-10 24-11 48-24 18-10 17-10 28-16 22-14 19-12 33-22 19-12 51-36 36-26 19-14 18-13 17-12 7-6h2l1-4 4-1v-2l11-8 5-5 14-10 13-10 17-13 15-13 5-4v-2l-17-11-21-13-40-25v-4l8-6 4-4 13 1 68 12 11 1 14-14 7-8 15-16 12-13 4-5 5-5 15-16 11-12 7-9-1-6-7-27-6-15-5-6v-2h-2l-5-5-8-5-18-8-36-12-32-10-56-18-8-3 3-5 14-13 3-3 14 1 76 10 10 1-7-8-10-9-11-9-18-13-16-10-19-10-25-10-18-6-22-5-23-3h-45l-26 4-28 7-22 8-18 8-22 12-14 10-14 11-13 11-12 12-11 14-8 10-10 15-8 14-8 16-5 11-5 14-7 24-4 20-2 24v278l2 27 3 21 14-14 5 1 5 6 6-1 10-12 9-14 7-12 7 1 4-5 15-25 9-13 8-8 6-3 5 1 9 8 7 8 16 10 10 8 6 4 2-4 7-9 7-12 5-9 2-2h4v2h5l11-16 8-13 4-5 7-3 9-9h2l2-4 9-10 8-11 7-14h3l-1 19-2 2-2-1-2 5-2 7h2l4-5h3l-2 6-9 11-2 5 17-9h3l-1 4-10 10-8 7-9 9-8 10-1 5-11 7-10 7-20 12-28 17-15 9-9 5-2-1 7-6 5-5 2-4v-5l-5-5-9-8-7-5-7-4-9-8-3-5v-2h-3l-3 10-8 17-4 12h9l4-4h3l-1 6-7 15v11l-8 7-14 6-22 7-10 5-13 12-9 9-4 6-12 7-10 4h-2l-5-13-6-29-2-18-1-23v-270l1-26 4-27 7-27 9-25 12-24 12-19 14-19 12-14 21-21 11-9 18-13 20-12 6-4 14-6 12-5 18-7 25-6 27-4 24-2h19l18 1 28 5 24 6 18 6 20 9 19 10 19 12 14 11 13 11 10 9 8 8 5-3 7 1 5 4v8l-3 3v2l26 4 8 1 2-5 7-8 6-6 8-1 5 3 1 2v8l-5 7-2 1v2l19 2 4 1-8-15-12-19-12-17-12-14-11-12-12-12-11-9-12-10-23-15-13-8-28-14-26-10-25-8-24-5-24-4-26-2h-39l-30 4-27 6-23 7-34 14-26 14-22 14-13 10-14 11-15 14-20 20-18 22-11 16-9 14-12 21-10 22-9 24-8 30-4 26-1 12 1 342 3 26 5 23 3 11v2l-15 5-21 5-5-1-2-4-2-10-2-6-2-13-3-13-3-21-1-32v-245l1-76 1-8 2-7 2-16 2-6 1-8 3-8 1-7 4-10 5-17 5-11 5-13 12-24 12-21 6-9h2l1-4 10-14 13-16 12-14 24-24 11-9 16-13 16-11 19-12 24-13 13-6 13-5 12-5 22-7 22-6 14-3 24-4z" fill="#0B264D"/>
<path transform="translate(981,440)" d="m0 0h45l29 4 26 7 26 10 19 9 14 8 16 11 12 9 14 12 10 9 3 3v2h-10l-76-10-14-1h-2l-2 4-7 7-7 6-1 3 23 7 31 10 45 14 35 12 19 9 9 7v2h2l6 8 6 15 7 27 1 6-11 13-24 26-2 3h-2l-2 4-9 9-7 8-16 17-11 12-5 6-2 1-11-1-57-10-17-3h-7l-7 7-5 3 1 3 15 9 24 15 21 13 14 9 4 3-2 4-14 12-14 11-13 10-15 11-26 18-9 5-4-1-3-3v-2l-4-2-16-15-8-7-5-4h-5l-4 9-6 10-12 14-4 5-8 7-4 4-7 3-7 11-9 14-6 8-5-1v-2l-5 2-5 9-9 15-7 8-1 2-5-2-7-6-8-6-11-6-13-13-6-5-5 1-6 4-9 10-15 25-7 11-3 3-5-1-2-1-2 5-9 15-9 12-6 7-6 1-5-6-5-1-14 14-2-6-3-26-1-17v-278l2-24 4-20 9-31 9-21 10-19 11-17 8-11 13-16 9-10 10-10 10-8 18-14 13-8 14-8 24-11 27-9 26-6z" fill="#FAA30B"/>
<path transform="translate(1336,697)" d="m0 0 6 5 9 11 12 13 4 7 1 5v278l-3 25-1 1-4 26h-2l-1 8-5 20-4 10-7 19-3 7-5 12-13 23-10 17-11 16-1 2h-2l-2 4-5 8-5 5-10 11-7 8-2 3h-2l-2 4-9 7-4 4-11 9-16 13-4 3h-2v2l-7 4-14 9-29 15-23 11-40 13-8 3-14 3-15 1v2l-22 3-12 1h-59l-23-3-15-3v-2l-10-1-16-3v-2h-7v-2l-7-1-26-9-11-5-8-3-16-8v-2l-9-3v-2l-7-2v-2l-5-2-3-1v-2h-3v-2l-4-1-11-8-5-3-8-6-8-7-17-14-5-5v-2l-4-2-11-12-5-4-7-9-5-6-4-4-6-8v-2h-2l-3-6-9 3-22 9-17 6-16 5-32 8-21 4-23 3h-23l-31-5-15-4-16-7-12-7-11-10-10-13-7-14-4-14-3-21v-19l3-24 7-26 9-25 9-20 9-19 13-23 13-22 16-24 13-18 10-14 14-19 18-22 12-14 9-10 9-11 11-12 12-13 6-5h2l-1 48-4 5h-2l-2 4-21 21-9 11-12 13-11 14-14 19-15 22-12 19-14 25-13 27-10 25-6 19-5 22-2 15v20l3 15 7 16 9 10 8 6 14 7 12 4 14 3 9 1h27l20-2 19-3 21-5 22-7 19-7 29-12 38-19 23-13 17-10 27-18 11-7 22-15 17-12 18-13 18-14 16-12 28-22 14-12 11-9 10-9 11-9 13-12 11-9 10-9 8-7 12-11 8-7 25-25 8-7 39-39 8-7 16-15 4-3 4 5 14 27 20 40 4 7v2l8-7 4-5 1-8-6-75v-6l5-5 28-22 16-13 14-11 4-3 3 1-1 247-4 31-5 22-1 2-4-2-10-10-9-11-11-13-11-14-13-16-11-14-10-11-4-5-8-6-6 2-21 11-9 5-4-2-12-14-8-10-2-5-5 1-4 1-3-3-6-12-3-4v-2l-5 3-5-1v-3l-5 3-8 8-7 8-22 24-7 7-7 8-23 23-8 7-17 17-8 7-7 7-8 7-12 11-8 7-14 12-28 22-18 14-21 16-13 9-17 12-20 13-9 6-14 8-7 5-6 3-11 6h-2l1 4 12 14 11 12 13 13 11 9 11 10 17 12 21 14 16 9 19 9 27 11 18 6 25 6 27 4 13 1h39l26-3 24-4 27-7 28-10 20-9 21-11 22-14 19-14 14-12 12-11 17-17 7-8 14-18 12-17 9-15 8-16 9-20 7-20 6-21 5-26 2-19 1-25v-282z" fill="#F9A30C"/>
<path transform="translate(982,363)" d="m0 0h39l26 2 35 6 20 5 32 11 20 9 16 8 14 8 17 11 14 10 15 13 10 9 14 14 18 22 16 24 11 19 1 4-23-2v-4l5-5 1-2v-10l-5-2-8 1-11 11-4 7h-8l-26-4v-4l2-2v-8l-7-4-5 1-5 2-7-8-7-7-11-9-15-12-15-10-21-12-21-10-20-7-18-5-31-6-6-1-18-1h-19l-32 3-24 4-20 5-25 10-21 9-9 6-15 9-18 13-14 12-20 20-9 11-12 16-12 19-12 23-8 20-7 23-5 24-2 16-1 26v270l1 23 3 24 6 27 3 9 18-8 4-3h2l2-4 7-8 12-12 8-6 16-6 21-7 10-6 3-3v-11l8-18 1-3h-3l-2 4-2 1h-7l-2-1 1-7 14-32h3l6 9 10 8 7 4 11 9 5 4 2 3v7l-5 5h-2l-2 4-4 4 18-10 16-10 20-12 24-15 14-10 2-5 9-11 14-14 8-7 4-4 1-3-16 8-4 1 1-5 9-11 2-6-5 5-4 1 2-8 3-5 3-1 1-17 1-2 4 2 8 7 10 9 11 10 5 5 4 1 14-8 8-6 2 1-10 8h-2v2l-4 2-1 3-17 13-23 16-19 14-16 12-17 12-18 13-16 11-14 10-21 14-35 23-17 11-19 12-20 12-28 16-19 11-29 15-36 18-25 10-33 11-28 7-7 1h-27l-13-2-9-3-11-7-8-9-4-9-2-8v-16l4-20 6-20 10-23 12-23 13-21 14-20 14-18 12-14 10-11v-67l2-2v138h-2l-2 6-6 8-9 15-6 11-5 12-4 9-2 8v18l3 9 5 3 2 1v2h3v2l14 1h11l21-1 1-2 9-1 23-6 8-2-6-21-4-21-2-20-1-342 3-26 4-20 7-25 11-28 9-19 13-22 8-12 12-17 9-10 9-11 27-27 11-9 14-11 17-12 24-14 17-9 35-14 24-7 23-5z" fill="#ACC2DA"/>
<path transform="translate(1327,676)" d="m0 0 5 4 14 19 9 11 12 16 4 14 3 15v6h-1l-3-12-1 248h-1l-1-259-3-9-9-10-11-13-7-8-1 9v276l-1 25-3 26-6 27-7 22-10 25-8 16-8 15-13 19-14 18-9 10-7 8-20 20-11 9-12 10-18 13-25 15-16 8-23 10-30 10-25 6-34 5-11 1h-39l-29-3-24-5-25-7-39-16-20-10-19-12-17-12-12-9-10-9-11-9-21-21-9-11-7-8 1-3 13-7 12-7 11-7 5-3 8-5h3l4 7 12 12 11 9 13 11 18 13 21 12 25 12 36 12 24 5 13 2 29 1 28-1 23-3 25-6 30-10 25-12 21-12 13-9 16-13 16-15 13-13 9-11 13-18 13-22 9-19 8-21 7-25 4-21 2-19 1-26 1-242 25-20 13-11z" fill="#ACC2DA"/>
<path transform="translate(896,520)" d="m0 0 9 1 11 4 11 7 5 6 1 13 6 2 7-1 4-5 2-1 10 1 18 6 13 7 3 3 12 5 5 3 10 10 14 7 7 4 3 2h35l10 3 5 2 14 2 21 1h27l1 3-6 1-5 1h-40l-6-1h-53l-23 2-3 1v3l13 2 16 1 10 2 47 2 7 1 1 3-36 1-9 3v2l2 2 14 4 14 3 20 5 15 6 5 3v3l-2 1-34 3-20 1h-31l-19-3-32-7-25-5-24-3-37-1-26-1 1 7 2 6 5-2 3-1h8l5 3 5 5 9 3 4 3v9l-1 10 10 2 8 6 5 2v2l5 1 13 4 11 2 26 1 38 3 7 1v2l-79 1-10 2-9 6 1 4 11 4 18 5 16 3 38 3v2l-4 1h-38l-14-1h-54l-37 2h-75l-30-2-26-2-3-2h-9l-8-1-2 4v-52l2-24 4-20 9-31h1v5l5-2 13-7 7-3 10-2-1-7-1-4v-22l5-12 4-6 7-6 6-2h9l8 4 9 9 4-1 6-8 10-7h5l6 6 4 1 2-9 4-8 4-5z" fill="#D4983C"/>
<path transform="translate(1336,697)" d="m0 0 6 5 9 11 12 13 4 7 1 5v278l-3 25-1 1-4 26h-2l-1 8-5 20-4 10-7 19-3 7-5 12-13 23-10 17-11 16-1 2h-2l-2 4-5 8-5 5-10 11-7 8-2 3h-2l-2 4-9 7-4 4-11 9-16 13-4 3h-2v2l-7 4-14 9-29 15-23 11-40 13-8 3-14 3-15 1v2l-22 3-12 1h-59l-23-3-15-3v-2l-10-1-16-3v-2h-7v-2l-7-1-26-9-11-5-8-3-16-8v-2l-9-3v-2l-7-2v-2l-5-2-3-1v-2h-3v-2l-4-1-11-8-5-3-8-6-8-7-17-14-5-5v-2l-4-2-11-12-5-4-7-9-5-6-4-4-6-8v-2h-2l-3-6v-2l20-9 19-10 4-1 2 4 11 13 11 12 13 13 11 9 11 10 17 12 21 14 16 9 19 9 27 11 18 6 25 6 27 4 13 1h39l26-3 24-4 27-7 28-10 20-9 21-11 22-14 19-14 14-12 12-11 17-17 7-8 14-18 12-17 9-15 8-16 9-20 7-20 6-21 5-26 2-19 1-25v-282z" fill="#0B264D"/>
<path transform="translate(1164,939)" d="m0 0 4 1 9 9 13 19 9 15 8 16 7 17 4 7 2 1-6-18 1-2 5 5 12 16 6 7 2 1 1-2 5 1 4 3v2h2l-1 7-7 18-11 23-9 15-5 5-7 2-12 2-1 1 9 3 3 2-1 4-8 10-15 16-10 9-13 11-14 10-18 11-16 8-17 8-27 9-22 5-20 3h-9l1-8-4-5-9-7-1-5 1-1h24l6-1-3-5-10-7-17-12-2-3 1-1 12-1 18 3 20 5h6v-2l-30-11-30-14-7-5 1-3h15l29 5h14l-4-5-21-15-6-3 3-2 15 3 29 9v-3l-4-2-18-12-17-10-13-11v-1l7 1 13 1-1-6-4-5-13-10-16-13-3-5 2-5 14-7-4-13-9-19-2-5 4 2 4 5v2l4 2 11 9 7 11 7 14 3 5v2l4 1v-12l2-3 4 1 6 5 9 14 4 5 5 3v-11l5 1 4 2v2l4 2v2l5 2 3 2 8-1 9 13 8 11 5 5 3 1-5-5-4-5-2-5 1-7 3-8 1-7-3-3-3-2 1-6 6-7 14-10 2-3v-3l-9-3-1-5 8-9 8-7 2-4h-14l-6-1 1-6 5-7 15-12v-3l-7-3 1-4 9-11 6-10z" fill="#3F7CB0"/>
<path transform="translate(1009,833)" d="m0 0 4 2 8 7 10 9 11 10 5 5 4 1 14-8 8-6 2 1-10 8h-2v2l-4 2-1 3-17 13-23 16-19 14-16 12-17 12-18 13-16 11-14 10-21 14-35 23-17 11-19 12-20 12-28 16-19 11-29 15-36 18-25 10-33 11-28 7-7 1h-27l-13-2-9-3-11-7-8-9-4-9-2-8v-16l4-20 6-20 10-23 12-23 13-21 14-20 14-18 12-14 10-11v-67l2-2v138h-2l-2 6-6 8-9 15-6 11-5 12-4 9-2 8v18l3 9 5 3 2 1v2h3v2l14 1h11l21-1 1-2 9-1 23-6 8-2 1-2 4-1 10-3 8-3 9-4 14-5 8-4 2-2v2l18-8 4-3h2l2-4 7-8 12-12 8-6 16-6 21-7 10-6 3-3v-11l8-18 1-3h-3l-2 4-2 1h-7l-2-1 1-7 14-32h3l6 9 10 8 7 4 11 9 5 4 2 3v7l-5 5h-2l-2 4-4 4 18-10 16-10 20-12 24-15 14-10 2-5 9-11 14-14 8-7 4-4 1-3-16 8-4 1 1-5 9-11 2-6-5 5-4 1 2-8 3-5 3-1 1-17z" fill="#2E98DC"/>
<path transform="translate(594,1412)" d="m0 0h85l46 1 22 4 18 7 7 5 7 8 3 5 3 9v22l-5 13h-2l-2 5-11 8-5 2 1 3 8 4v2l4 2 4 6 3 8 4 21v4l-25 1h-30l-9-26-2-5-4-2-5-4-6-2-50-1v21l-1 18-2 1h-55l-1-1z" fill="#0B274E"/>
<path transform="translate(810,1688)" d="m0 0h69l5 5 13 15 9 11 11 13 9 11 11 13 9 11 10 12 2 1v-92h59v139l-61 1-10-2-7-7-3-4v-2l-3-1-9-11-8-10v-2l-3-1-9-11-4-5v-2l-3-1-8-10-5-6v-2l-3-1-11-14v-2h-2v93l-3 1h-56v-139z" fill="#0C284F"/>
<path transform="translate(1241,1412)" d="m0 0h153l8 1v33l-1 1h-101v22h86v26l-2 1h-84v21h109v35h-168z" fill="#0C284F"/>
<path transform="translate(878,1412)" d="m0 0h56l11 18 5 7v3h2l12 20v2h2v3h2l6 10 11 17 2 3v3h2l11 18 21 32 1 4h-53l-6-1-9-15-3-6-22-1h-68l-2 6-7 11-1 3h-2v2l-8 1h-51l1-4 13-20 1-2h2l1-4 12-19 14-21 7-12h2l1-4 10-16h2l1-5 4-6h2l1-4 12-19z" fill="#0B274E"/>
<path transform="translate(860,633)" d="m0 0h7l5 2 1 1v11l4 1 7-8 5 1 2 3 3 11 3 1 9-5 7 1 6 5 1 4 12 2 2 2-1 19 12 3 6 5 19 7 16 3 26 1 38 3 7 1v2l-79 1-10 2-9 6 1 4 11 4 18 5 16 3 38 3v2l-4 1h-38l-14-1h-54l-37 2h-75l-30-2-26-2-3-2h-9l-8-1-2 4v-43l1 4 5-1h11l7-6 10-1 8-7 4-3 6-3 4-8 8-8 5-2h8l6 4h4l3-8 3-3 8-4 6-9 7-6z" fill="#6DAEB5"/>
<path transform="translate(1036,1688)" d="m0 0h161v34l-1 2h-2v2l-16 12-17 13-5 2v2l-32 24h-2v2l-6 4h-2v2l-4 1v2h-2v2l89 1v35h-161v-35l11-9 12-9 13-10 51-39 3-1v-2h-90l-1-1v-33z" fill="#0C2950"/>
<path transform="translate(1020,1412)" d="m0 0h58l4 5 3 7 5 12 4 9 6 11 4 10 3 5 3 7 4 10 11 22 2 1 2-9 3-5 4-10 4-9 5-9 3-8 4-7 4-10 8-17 4-8 3-7h59l-2 5-6 12h-2l-2 6-14 25-12 21-12 22-8 14-6 11-12 21h-2v2l-13 1h-39l-3-1-6-11-1-4h-2l-3-6-12-22-1-4h-2l-4-8-12-22-9-16v-2h-2l-8-16-10-17-5-9z" fill="#0B274E"/>
<path transform="translate(906,548)" d="m0 0h13l12 3 9 4 12 1 4 2h6l3-5 1-2 7 1 16 7 16 8 7 3 5 5 4 5 16 8 7 4 3 2h35l10 3 5 2 14 2 21 1h27l1 3-6 1-5 1h-40l-6-1h-53l-23 2-3 1v3l13 2 16 1 10 2 47 2 7 1 1 3-36 1-5 1h-27l-76-1-27-1-43-3-34-3-7-3v-2l-3-1-24-1h-28l-28 1 2-4 5-2 46-9 13-5 8-5 8-7 7-10 8-7 14-9 10-4z" fill="#6DAEB6"/>
<path transform="translate(413,1412)" d="m0 0h167v35l-55 1v54l-1 49-2 1h-56v-105h-50l-4-1v-33z" fill="#0B274E"/>
<path transform="translate(1427,1412)" d="m0 0h59v105h104l1 2-1 32-5 1h-157l-1-1z" fill="#0C2850"/>
<path transform="translate(1065,899)" d="m0 0 3 3 3 6 10 7 11 6-5 4-8 7-5 6-3-1v-2l-8 6-5 8-9 3-6 9-2 1-4-1-14 28-4 6 5 2 3 3v2l4 2 9 6 10 3 1 2-7 6-4 5-3 1-10-6-12-11-6-5-5-7-2-1-2 4-10 15-5 6-3 1-4-2h-5l-16 17-8 7-5 2-1-5-6 3-7 8-9 10-9 11-14 15-7 7-11 9-10 9-8 7-9 9-10 8-10 6-3 1h-8l-11-9-4-5 1-4 15-10 14-10 19-14 45-35 17-14 12-11 8-7 10-9 12-11 16-15 14-14 8-7 22-22 7-8 9-9 7-8 13-14 7-8z" fill="#3E7DB1"/>
<path transform="translate(896,520)" d="m0 0 9 1 11 4 11 7 5 6 1 13 6 2 7-1 4-5 2-1 10 1 18 6 13 7-2 1-15-7-10-3-2 6-2 2h-6l-4-2-12-1-12-5-9-2h-13l-13 4-15 9-7 7h-2l-2 4-7 9-10 8-11 5-15 4-28 5-12 2 1-2 9-2-1-7-1-4v-22l5-12 4-6 7-6 6-2h9l8 4 9 9 4-1 6-8 10-7h5l6 6 4 1 2-9 4-8 4-5z" fill="#D4983D"/>
<path transform="translate(842,618)" d="m0 0h6v4l-16 5-7 5-26 8-1 3 38-5 12-2 1 3-6 10-5 3h-2l-2 4-4 9-5-1-5-3h-8l-6 3-8 9-3 6-9 5-7 7-2 1-10 1-7 6h-16l-1-4 1-24 3-21 6-22h2l1-5 8 1 8-1 41-2z" fill="#FAA30B"/>
<path transform="translate(632,669)" d="m0 0h1v310l1 32 5 32 2 7 2 12 2 5 2 13-5 1-16 1h-11l-11-1-3-1v-2h-3v-2l-6-2-4-6-1-5v-18l3-9 3-8 5-12 6-11 5-9 5 1 1-3 3-3 4-5 8 2v-58l1-256z" fill="#B8D5F6"/>
<path transform="translate(855,917)" d="m0 0h3l6 9 10 8 7 4 11 9 5 4 2 3v7l-5 5h-2l-2 4-9 9-16 9-21 12-27 14-16 8-17 8-8 4-8 2 2-4 7-8 12-12 8-6 16-6 21-7 10-6 3-3v-11l8-18 1-3h-3l-2 4-2 1h-7l-2-1 1-7 7-16z" fill="#3E7CB0"/>
<path transform="translate(980,701)" d="m0 0h15l38 2 32 3 17 3 35 2 2 4-4 2-50 5-12 2-15 1h-52l-1 4 4 2-8-1-19-6-4-3 1-4 11-7 8-1h79v-2l-18-1-27-2-26-1-6-1z" fill="#D4983D"/>
<path transform="translate(655,1446)" d="m0 0 53 1 11 3 5 3 3 5v7l-3 5-7 5-12 2-46 1-6-1-1-9 1-21z" fill="#C3E0F8"/>
<path transform="translate(1009,833)" d="m0 0 4 2 8 7 10 9 11 10 5 5 4 1 14-8 8-6 2 1-10 8h-2v2l-4 2-1 3-17 13-7 5h-4l-6 1-1 2-5 1-2 4-5 1-18 13-6 4-4 4-4 1-1-3 6-8 11-12 8-8 8-7 4-4 1-3-16 8-4 1 1-5 9-11 2-6-5 5-4 1 2-8 3-5 3-1 1-17z" fill="#3E7CAF"/>
<path transform="translate(1361,1070)" d="m0 0h1v9l-2 5-1 10-3 9-3 7-2 8-4 10-4 9-4 10-9 16-8 16-14 21h-2l-2 5-8 10-13 15-4 5h-2l-2 4h-2l-1 3-8 7-7 6-5 4h-2v2l-7 5h-2l-2 4-10 8-6 1-2 4-5 5-6 1v-3l2-3h3v-2l13-10 16-13 5-4h2l2-4 9-7 1-2h2l2-4 12-13 8-10h2l2-5 5-7h2l2-5 12-18 12-21 10-18 8-20 8-23 2-4 5-21h3z" fill="#BEDDF6"/>
<path transform="translate(1022,947)" d="m0 0v3l-3 1v2l2 1-7 9h-2l-2 4-32 32-8 7-5 5h-2l-2 4-8 7-24 22h-2l-1 3-16 12h-2l-2 4-12 9-7 5-5 5-11 8-4 2-1 3-11 7-4 2-1 3-11 7-15 10h-2v2l-6 3-4-1 2-5 13-9 17-12 38-29 25-20 11-9 12-11 8-7 10-9 12-11 16-15 14-14 8-7 22-22z" fill="#3094D7"/>
<path transform="translate(1083,329)" d="m0 0 13 2 11 4 8 1 20 6 14 6 17 7 15 7 17 9 13 8 17 12 11 8 13 11 15 14 15 15 11 14 6 8 4 5 4 8 5 6-1 4h-2l-6-9v-2l-3 1-13-17-11-13-9-10-12-12-6-4-5-5-15-12-11-8-12-8-11-7-10-6-19-10-23-10-15-6-18-6-9-2-18-5-5-1v-2z" fill="#C4E1F9"/>
<path transform="translate(1327,676)" d="m0 0 5 4 14 19 9 11 12 16 4 14 3 15v6h-1l-3-12-1 248h-1l-1-259-3-9-9-10-11-13-7-8-1 9v276l-1 25-3 26-6 27-3 10-1-4 6-24 3-19 1-10 1-24v-294l-4-6-4-2-18 10-6 1 4-5 11-9z" fill="#3293D4"/>
<path transform="translate(1232,1414)" d="m0 0 1 2 4 2 3 6v29l-1 40-4-2-1-25-2-30-3-3h-2l-2 6-4 7-7 11-13 22-11 20-7 14-7 12-10 16-7 5-2-1 1-5 11-19 12-22 16-29 16-28 7-13h2l1-5 5-8z" fill="#C3E1F9"/>
<path transform="translate(1300,1496)" d="m0 0h77l-4 4-5 2-25 3-3 3 9 1 2 1 18 1 22 2 5 3v1h-96z" fill="#CAE6FE"/>
<path transform="translate(1301,1448)" d="m0 0h91l-1 3-10 2-17 1-8 2-8 1-1 3 11 1 6 2 9 1 12 3-1 2-83-1z" fill="#CBE7FE"/>
<path transform="translate(1198,1721)" d="m0 0 2 2-1 4-15 15-4 3h-2v2l-14 11-14 12-10 7-2 2-1 5 4 1 26 1 14 2 4 2v2l-11 1h-67l1-3h2v-2l4-1v-2l6-4h2v-2l14-10 18-14h2v-2l6-4 30-23h2v-2h4z" fill="#C9E5FD"/>
<path transform="translate(587,1418)" d="m0 0 5 3 1 4v28l-4 5-3-4v-3l-11 1-4 2-33 3-4 4-1 3-1 13-1 21-2 6-1 20-2-2-1-75h55v-20l2-5z" fill="#CAE6FE"/>
<path transform="translate(1085,1723)" d="m0 0h41v2l-20 15-18 14-13 10-12 9-27 21-1 26h-2l-1-3v-18l3-8 8-10 8-6 5-5 11-8 10-9 4-3h2l2-4 9-7 3-4-1-4-20-2h-14l-16-1-2-3 1-1z" fill="#C8E4FC"/>
<path transform="translate(868,1734)" d="m0 0h2l8 11 4 5 5 5 9 11 6 7 9 11 7 8 16 20 5 5 7 8 2 1v2h3v3l-9-2-10-9-9-9-10-14-6-8-5-5-10-13-2-4-4-2v-2l-4-2-2-2-5 1-1 10v44l-4 4-1-1z" fill="#C8E4FC"/>
<path transform="translate(905,1452)" d="m0 0 2 1v2h2l3 6v3h2l3 6 13 22v3h-48l2-6 5-9h2l1-5 11-19z" fill="#C2E0F8"/>
<path transform="translate(1517,467)" d="m0 0 4 5 2 3v20l-3 11-6 12-7 9-6 7-10 8-12 11-10 8-3 1-2 4-8 7h-2v2l-6 4h-2v2l-8 6h-3v2h-2v2h-2l-1 5-6 8-4 4-1-9 6-7 8-6 5-5 5-4 5-5 6-5 5-5 5-4 5-5 5-4 10-10 14-12 4-6h2l1-4 6-12 4-14 1-10v-13z" fill="#C2E0F8"/>
<path transform="translate(885,1690)" d="m0 0 5 2 6 5 10 13 9 10 14 18 15 15 6 1 1-17 1-4 1-16 3-12h1l1 75-4-2-9-11-12-14-9-11-11-13-9-11-12-14-7-9z" fill="#C9E5FC"/>
<path transform="translate(1219,580)" d="m0 0 10 1 10 5 13 13 8 7 10 9 10 8 3 3-2 4-12 11-8 7-3-4-7-27-6-15-5-6v-2h-2l-5-5-8-5-6-3z" fill="#3390CF"/>
<path transform="translate(1020,1417)" d="m0 0h3l3 6 12 21 5 10v2h2l12 22 8 14 5 9v3h2l9 17 5 9 2 3v3h2l7 12-1 4-5-1-8-10-15-29-10-17-7-14-10-17-8-16-12-21-1-2z" fill="#C0DEF7"/>
<path transform="translate(626,842)" d="m0 0 4 1 1 6v81l-1 58-8-1-5 7-3 3-4 1 1-4 6-10 3-3 2-5h2l1-131z" fill="#CAE6FE"/>
<path transform="translate(1489,1417)" d="m0 0 3 2 1 4v37l-1 19-1 11 1 14 2 8 2 1h29l33-1h17l14 4v1h-102v-96z" fill="#CBE7FE"/>
<path transform="translate(417,1448)" d="m0 0h48l1 93-4-2-2-9-1-12v-12l-1-10v-35l-2-4-6-2h-21l-9-1-5-5z" fill="#CCE8FF"/>
<path transform="translate(1563,1552)" d="m0 0 19 1 3 1v4l-2 1-15 1h-51l-51-1-17-1-2-4 1-1z" fill="#CCE8FF"/>
<path transform="translate(1369,747)" d="m0 0 2 2 2 7v5h2l3 17 3 16v4l-6 1-2 18v132l-1 25h-2z" fill="#CBE7FE"/>
<path transform="translate(939,1416)" d="m0 0 4 1v2h2l12 18 8 14v2h2l8 13 4 7v2h2l4 7 2 6h2l2 6v3l4 2 3 4 1 5 4 3 1 5 7 6 2 4v3h2v2l3 1 2 6-3 1-5-3-16-25-7-11v-2h-2l-6-11-10-15-3-5v-2h-2v-3h-2l-7-12-5-8v-2h-2l-4-7-6-10z" fill="#C4E1FA"/>
<path transform="translate(654,1512)" d="m0 0h49l9 4 6 5 5 10 5 15v5l-4-2-4-4-4-10-6-9-6-5-6-2h-25l-9 1-3 4h-2v15l-3 3h-2z" fill="#C6E3FB"/>
<path transform="translate(1334,697)" d="m0 0h1l1 10v276l-1 25-3 26-6 27-3 10-1-4 6-24 3-19 1-10 1-24v-136z" fill="#5797B3"/>
<path transform="translate(963,323)" d="m0 0h15l2 2-1 1-31 4-15 3-15 4-16 4-24 8-14 5-32 15-24 14-13 9h-2l2-4 3-4 6-1v-2l7-5 6-3 7-4h5l2-4 7-3 2-2 7-3 13-6 7-3 9-3 4-2 8-2 4-2 7-1 5-3 13-4 11-2 5-2 16-2 3-1z" fill="#C0DEF6"/>
<path transform="translate(1096,919)" d="m0 0 4 4 4 6 4 5 1 5 1 4 3 3 5 2v2h2v2l-11 8-7 4-9 3h-5v-2l7-5v-2l-7-1 2-5 3-4-1-8 2-3 1-5v-12z" fill="#3F7DB1"/>
<path transform="translate(1085,1417)" d="m0 0 5 5 4 6 6 14 5 12 12 27 3 10 1 1h9l4-4-1 9-4 7-2 7-3-1-8-15-3-7-5-12-8-16-4-10-9-18-3-8v-6z" fill="#C1DFF7"/>
<path transform="translate(745,733)" d="m0 0 14 1 4 1 10 2 37 2 11 1h75l37-2h54v1l-50 1-34 2-39 1h-71l-49-2v68h-1v-71z" fill="#D4983D"/>
<path transform="translate(1092,1829)" d="m0 0h95l1 3-5 2-16 1h-25l-29-1h-66l-2-4z" fill="#CBE7FE"/>
<path transform="translate(753,1250)" d="m0 0 5 2 15 13 3 2v2l5 2 7 6 7 4 8 6 3 1v2h3v2l4 1 4 2v2l7 2v2l9 3v2l6 2 14 7 10 4-3 1h-3l-9-2-5-3-13-5-15-9-4-3-12-6-10-7-7-5v-2h-2l-5-5-9-6-8-10-5-6z" fill="#BCDAF4"/>
<path transform="translate(1253,1553)" d="m0 0h137l-2 1 1 3-11 1h-120l-8-3z" fill="#CBE7FE"/>
<path transform="translate(683,1455)" d="m0 0h17l9 1 3 2 1 5-4 4-8 1h-35l-3-1-1-2v-6l5-3z" fill="#C2DCFE"/>
<path transform="translate(1092,597)" d="m0 0 27 3h41l2 2-1 4-7 2-11 1h-26l-10-1-28-1h-23l-19 2-4 2 22 3 10 2 36 1 16 1 3 1 1 4-1 1-26 1h-17v-1l5-1h36l-1-2-7-1-47-2-10-2-25-2-5-2 1-4 3-1 23-2h54l5 1h40l11-1-1-2h-35l-21-2-9-2z" fill="#D4983D"/>
<path transform="translate(534,1406)" d="m0 0h9l10 1 5 2 19 1v1l-102 1h-54l-3-2 10-2 10-1h62z" fill="#CBE7FE"/>
<path transform="translate(807,1701)" d="m0 0h1v115l-3-1-2-9v-79l1-16 1-8z" fill="#CBE7FE"/>
<path transform="translate(782,1439)" d="m0 0 5 4 4 13-1 10v7l-3 11-4 7-7 9 1 7 1 8-6-3-3-2v-2l-6-2-4-3 1-3 8-4 8-6 2-4h2l1-5 3-8v-22l-3-9z" fill="#C2E0F8"/>
<path transform="translate(823,1495)" d="m0 0 1 4-16 24-1 3h-2l-2 5-11 17-3 4h-3l-3-5-2-12-3-12-1-5 5 2 4 9 5 5 5-3 4-4 5-9 8-11 6-8z" fill="#C5E2F9"/>
<path transform="translate(905,1472)" d="m0 0 5 1 5 5 2 7-1 5 6-2 1-6 3 3 4 7v3h-48l2-6 2 4 14-1-1-4v-7l3-7z" fill="#BFDAFB"/>
<path transform="translate(609 1e3)" d="m0 0 1 3-4 10-5 9-3 10-2 5-3 17 3 12 3 5v2l4 1 3 4v2h-5v-2h-3v-2l-6-2-4-6-1-5v-18l3-9 3-8 5-12 6-11z" fill="#C8E4FC"/>
<path transform="translate(1245,601)" d="m0 0 3 1 2 4 8 6 9 10 2 4 1 7-6 7-3 4h-3l-7-27z" fill="#0C2850"/>
<path transform="translate(1208,1286)" d="m0 0 2 1-4 6-11 8-5 3-17 9-14 6-4 2-5 3h-14l3-2 16-7 32-16 17-10z" fill="#B6D6F0"/>
<path transform="translate(1439,783)" d="m0 0 2 1-2 5-6 10-2 11-1 24-1 16-2 2-1-4-1-16-1-36 6-5 3-3z" fill="#C9E6FD"/>
<path transform="translate(978,730)" d="m0 0 11 1 16 3 38 3v2l-4 1h-38l-14-1v-2h-17v-1h6v-2h2z" fill="#3A98D1"/>
<path transform="translate(1054,596)" d="m0 0h32l8 2v2l9 2-2 2h-45l-3-5z" fill="#3097DA"/>
<path transform="translate(963,323)" d="m0 0h15l2 2-1 1-31 4-15 3-15 4-13 3h-5v-3l9-3 8-3 11-2 5-2 16-2 3-1z" fill="#C7E3FB"/>
<path transform="translate(1367,728)" d="m0 0 2 4 5 23v6h-1l-3-12-1 248h-1l-1-259-1-6z" fill="#4281B1"/>
<path transform="translate(1462,457)" d="m0 0h5l-2 3-16 8-13 11-32 32-3 1v-4l3-4h2v-2h2v-2h2v-2h2v-2l8-7 18-18 10-7 9-5z" fill="#C2E0F6"/>
<path transform="translate(1265,611)" d="m0 0 8 6 10 9-2 4-12 11-8 7-2-4 4-4 6-7-2-9-5-7 5 1-2-4z" fill="#3D7EB3"/>
<path transform="translate(895,1528)" d="m0 0h34l22 1 8 14 3 4-1 3-7-4-5-6-5-5v-3h3v-2l-84 1-3 2 1-4z" fill="#93C0D8"/>
<path transform="translate(1426,1413)" d="m0 0h1v62h-3l-1-2v-17l-1-3v-29z" fill="#CCE8FF"/>
<path transform="translate(1284,519)" d="m0 0h2v5l5-4 9 16v2l-23-2v-4l5-5z" fill="#9EBCD6"/>
<path transform="translate(863,1530)" d="m0 0 28 1v2l-6 2h-10l-7 3-7 5-5 5-4-1 3-7 4-7z" fill="#C7E4FB"/>
<path transform="translate(476,1553)" d="m0 0h38l2 2-2 3-10 1h-16l-10-1-4-4z" fill="#CCE8FF"/>
<path transform="translate(1322,680)" d="m0 0 3 1v1h4l3 5 6 8-1 3-2 3-3-7-5-6-6 2-14 8-6 1 4-5 11-9z" fill="#4786B2"/>
<path transform="translate(1010,834)" d="m0 0 5 2 7 7 8 7 12 11 5 5 2 4-3 1-11-9-11-11-14-16z" fill="#0C2950"/>
<path transform="translate(1454,1406)" d="m0 0h9l11 1 9 3v2h-44l-6-1v-1l18-3z" fill="#CBE7FE"/>
<path transform="translate(1336,526)" d="m0 0 4 5 4 7 5 3 10 1 9-3 5-2-1 4-6 5-24-2-4-4-5-10 1-3z" fill="#C5E1F9"/>
<path transform="translate(1370,1408)" d="m0 0 29 2v2l-143-1v-1l89-1h13z" fill="#CCE8FF"/>
<path transform="translate(818,1829)" d="m0 0h39v3l-7 2h-26l-6-2z" fill="#CCE8FF"/>
<path transform="translate(815,658)" d="m0 0 6 1 3 3-4-1h-8l-6 3-8 9-3 6-9 5-7 7-2 1-10 1-7 6h-16l1-4h14l8-5h8l4-2 5-6 8-4h2l2-7 6-7 6-4z" fill="#D4983D"/>
<path transform="translate(605,1553)" d="m0 0h35l1 3-3 2h-28l-5-2z" fill="#CCE8FF"/>
<path transform="translate(840,360)" d="m0 0m-1 1m-1 1m-1 1m-2 1h2l-1 3-25 14-12 8-4 3h-2l2-4 3-4 6-1v-2l7-5 6-3 7-4h5l2-4z" fill="#C2E0F7"/>
<path transform="translate(620,1408)" d="m0 0h30l6 1 19 1v1h-74v-1l18-1z" fill="#CCE8FF"/>
<path transform="translate(1e3 1516)" d="m0 0 5 3 4 5 1 5h2v2l3 1 2 6-3 1-5-3-9-14z" fill="#C5E2FA"/>
<path transform="translate(1592,1525)" d="m0 0 5 2v18l-4 4-2-1v-19z" fill="#CCE8FF"/>
<path transform="translate(409,1413)" d="m0 0h2v31l-2-1v-2h-2l-1-3v-15l2-8z" fill="#CCE8FF"/>
<path transform="translate(952,1830)" d="m0 0h40l-2 2-16 2h-18z" fill="#CCE8FF"/>
<path transform="translate(1436,584)" d="m0 0m-2 1 2 1-1 3h-2v2h-2l-1 5-6 8-4 4-1-9 6-7z" fill="#CBE7FE"/>
<path transform="translate(983,322)" d="m0 0h22l22 1 9 1v1h-54z" fill="#C9E4FE"/>
<path transform="translate(1498,452)" d="m0 0 12 2 5 5 2 7-5-2-8-6-5-2-11-1v-1l9-1z" fill="#C0DEF6"/>
<path transform="translate(884,1489)" d="m0 0 2 4h42l2-1v3h-48z" fill="#78A2C9"/>
<path transform="translate(1425,1513)" d="m0 0h2v31l-4-4v-12z" fill="#CCE8FF"/>
<path transform="translate(741,1414)" d="m0 0 9 1 9 3 8 5v2l3 1-1 2-7-4-15-6-12-2v-1z" fill="#B0D2ED"/>
<path transform="translate(782,733)" d="m0 0h51v1l-5 1-33 1-11-1z" fill="#3F7DB1"/>
<path transform="translate(1432,702)" d="m0 0h2l-1 5-6 9-1 2-4-1v-6l8-7z" fill="#CBE7FE"/>
<path transform="translate(1224,1274)" d="m0 0 2 1-6 10-7 4-3-1 1-4 4-1v-2z" fill="#B3D4EE"/>
<path transform="translate(1319,685)" d="m0 0 2 1-4 3-1 4-9 5-6 1 4-5 9-7z" fill="#4097CA"/>
<path transform="translate(1034,1793)" d="m0 0h1v27h-2l-1-3v-18z" fill="#CCE8FF"/>
<path transform="translate(985,1492)" d="m0 0 3 1 14 22 2 5-3-1-12-19v-2h-2z" fill="#B5D3F0"/>
<path transform="translate(1281,508)" d="m0 0 4 2 5 8-1 5-3 1v-5h-2l-3-7z" fill="#B3D0ED"/>
<path transform="translate(871,1420)" d="m0 0 1 4-8 12-1 3h-2l-1 2-1-3 3-6h2l2-7z" fill="#C1E0F6"/>
<path transform="translate(1008,895)" d="m0 0 3 1-18 13-7 5-2-1 5-5 6-4z" fill="#0B264D"/>
<path transform="translate(1371,537)" d="m0 0h2l-1 4-6 5-11-1 4-2z" fill="#C1DFF6"/>
<path transform="translate(1073,853)" d="m0 0 2 1-10 8h-2v2l-6 2-1-2 10-6zm-18 12v3l-7 4 1-4z" fill="#3C85BB"/>
<path transform="translate(1054,326)" d="m0 0h10l6 3 8 2-4 1-20-3z" fill="#9FC5E2"/>
<path transform="translate(1018,1701)" d="m0 0h1l2 16-1 11-1 6h-1z" fill="#CCE8FF"/>
<path transform="translate(990,1497)" d="m0 0 4 1 4 5 1 5 4 3v5l-4-4-9-14z" fill="#CCE8FF"/>
<path transform="translate(767,1423)" d="m0 0h5l6 7 4 6-1 2-5-6v-2l-5-1-4-4z" fill="#CAE6FE"/>
<path transform="translate(1020,736)" d="m0 0 23 1v2h-22z" fill="#8DB9C8"/>
<path transform="translate(1479,452)" d="m0 0h13l5 1v1l-17 2h-7l1-2z" fill="#CAE5FD"/>
<path transform="translate(1198,1805)" d="m0 0h2l2 4v7l-4 4z" fill="#CCE8FF"/>
<path transform="translate(1034,1693)" d="m0 0h1v24l-2-2-1-13z" fill="#CCE8FF"/>
<path transform="translate(1280,626)" d="m0 0h3l-2 4-9 8-3-1 7-8z" fill="#549AB9"/>
<path transform="translate(993,561)" d="m0 0 5 1 5 3 10 3 3 3v2l-4-2-12-5-7-4z" fill="#D4983D"/>
<path transform="translate(1304,473)" d="m0 0 4 2 4 5-1 4h-2l-6-9z" fill="#CCE8FF"/>
<path transform="translate(1238,1497)" d="m0 0 2 1v14l-2 1-1-7v-8z" fill="#C8E3FE"/>
<path transform="translate(1369,747)" d="m0 0 2 2 2 7v5h2l1 8-3-4-3-8h-1z" fill="#A1C1E2"/>
<path transform="translate(756,732)" d="m0 0h11l2 2-16 1-6-1v-1z" fill="#4785B1"/>
<path transform="translate(1036,931)" d="m0 0 2 1-12 13-2 1 1-4z" fill="#338FCE"/>
<path transform="translate(1009,833)" d="m0 0 2 1 1 9h-3l-1 4v-12z" fill="#3291D1"/>
<path transform="translate(722,453)" d="m0 0h2l-2 5-6 7-2-1 2-5z" fill="#C1DFF6"/>
<path transform="translate(740,1554)" d="m0 0h14l-4 3-5 1-5-2z" fill="#CCE8FF"/>
<path transform="translate(995,1216)" d="m0 0h11l3 2-2 1h-11z" fill="#3B82B9"/>
<path transform="translate(829,1485)" d="m0 0h2l-1 4-5 8-2-3 3-6z" fill="#C1DEF5"/>
<path transform="translate(1357,1072)" d="m0 0 2 4-1 7-3 5-2 2 2-10z" fill="#8CB5D6"/>
<path transform="translate(1016,573)" d="m0 0 7 6 10 6-3 1-10-6-4-5z" fill="#D4983D"/>
<path transform="translate(802,383)" d="m0 0 1 3-8 6h-2l2-4 3-4z" fill="#C2E0F7"/>
<path transform="translate(1199,516)" d="m0 0h4l-2 5-2 3-4-1z" fill="#3C88BF"/>
<path transform="translate(782,396)" d="m0 0h4l-1 3-5 4-4-1 5-5z" fill="#C0DFF4"/>
<path transform="translate(858,1441)" d="m0 0 1 3-3 6h-2l-1 2-1-5z" fill="#BDDBF3"/>
<path transform="translate(1143,1322)" d="m0 0m-3 1h3l-1 3-4 2h-5l1-3z" fill="#CAE5FD"/>
<path transform="translate(1430,588)" d="m0 0 2 1-11 11-2-1 6-7z" fill="#9DC1DD"/>
<path transform="translate(588,1467)" d="m0 0h3l1 4-1 4-3-1-1-6z" fill="#CCE8FF"/>
<path transform="translate(865,1430)" d="m0 0 1 3-3 6h-2l-1 2-1-3 3-6z" fill="#BBDAF2"/>
<path transform="translate(642,1069)" d="m0 0 3 1 1 9h-5l2-5z" fill="#C9E5FC"/>
<path transform="translate(1060,620)" d="m0 0h7l5 2v1h-13z" fill="#2E99DE"/>
<path transform="translate(1198,1703)" d="m0 0 2 1 1 3v7h-3z" fill="#CCE8FF"/>
<path transform="translate(1403,1426)" d="m0 0h3l1 6-3 3h-1z" fill="#CCE8FF"/>
<path transform="translate(1362,1049)" d="m0 0 2 4-1 8-3 2 1-9z" fill="#8AB3D6"/>
<path transform="translate(834,653)" d="m0 0 2 1-3 3-3 8-5-1-1-2h5l3-7z" fill="#D4983D"/>
<path transform="translate(840,360)" d="m0 0m-1 1m-1 1m-1 1m-2 1h2l-1 3-5 3h-2l1-4z" fill="#C7E4FC"/>
<path transform="translate(985,1492)" d="m0 0 3 1 5 8v2l-3-1-1-4h-2z" fill="#B1D0EF"/>
<path transform="translate(836,1474)" d="m0 0h2l-1 4-2 4h-3l1-5z" fill="#B9DAF1"/>
<path transform="translate(1219,580)" d="m0 0 10 1 3 2-5 2-8-4z" fill="#4B8EB7"/>
<path transform="translate(1312,486)" d="m0 0 4 2 2 3v6l-4-5z" fill="#CCE8FF"/>
<path transform="translate(1263,640)" d="m0 0h2l1 4-6 4-1-4z" fill="#5794B7"/>
</svg>
